Coordinates
version=1
nRows=6
nColumns=34
inDegrees=yes

Units are S.I. units (second, meters, Newtons, ...)
If the header above contains a line with 'inDegrees', this indicates whether rotational values are in degrees (yes) or radians (no).

endheader
time	pelvis_tilt	pelvis_list	pelvis_rotation	pelvis_tx	pelvis_ty	pelvis_tz	hip_flexion_r	hip_adduction_r	hip_rotation_r	knee_angle_r	ankle_angle_r	subtalar_angle_r	mtp_angle_r	hip_flexion_l	hip_adduction_l	hip_rotation_l	knee_angle_l	ankle_angle_l	subtalar_angle_l	mtp_angle_l	lumbar_extension	lumbar_bending	lumbar_rotation	arm_flex_r	arm_add_r	arm_rot_r	elbow_flex_r	pro_sup_r	arm_flex_l	arm_add_l	arm_rot_l	elbow_flex_l	pro_sup_l
      0.68333330	    -13.97869374	      0.42038419	     -3.79967129	      1.49992268	      0.80193592	     -0.09680433	     35.62479490	     -6.76335692	     -3.27656699	     38.38688005	     18.62153522	     -7.10247942	      0.00000000	     34.09197257	     -7.81651444	     -5.87202152	     38.26904053	     19.51385566	     -3.71005028	      0.00000000	    -13.68272370	      2.17588731	     -0.51576619	     22.17260892	     -4.57040499	     30.13077959	     86.32602289	     88.02515632	     25.80116546	     -4.53228275	     20.62774819	     79.03064114	     88.28958288
      0.70000000	    -14.14346972	      0.38740428	     -3.87440353	      1.49887235	      0.79336484	     -0.09622890	     37.75456027	     -7.19081566	     -3.60434077	     41.70271170	     19.85175662	     -6.25651009	      0.00000000	     36.38873185	     -8.48262463	     -6.19075734	     42.10339652	     21.17666188	     -2.91519935	      0.00000000	    -14.78975079	      2.16150382	     -0.52297800	     22.97075066	     -4.28653536	     29.71806946	     88.06627675	     88.09446709	     27.02035355	     -4.22494632	     21.12887936	     80.92292856	     88.23669449
      0.71666670	    -14.17590830	      0.30948585	     -3.90288541	      1.49868114	      0.78404491	     -0.09546002	     39.63252122	     -7.60980045	     -3.94902001	     45.10387961	     21.32381895	     -5.42356310	      0.00000000	     38.42168175	     -9.24319152	     -6.43393469	     45.89049765	     22.98600140	     -1.98006717	      0.00000000	    -15.83935904	      2.19000216	     -0.49774038	     23.52088460	     -4.08632715	     29.56920395	     89.98108279	     88.16686870	     27.90411307	     -3.86645956	     22.30215190	     83.08266986	     88.15938616
      0.73333330	    -14.04669901	      0.21099199	     -3.91086432	      1.49789609	      0.77697423	     -0.09524486	     41.18173128	     -8.00688298	     -4.20421490	     48.40523710	     22.88316532	     -4.56343655	      0.00000000	     40.11973565	     -9.99395988	     -6.54348942	     49.44341335	     24.78659331	     -0.90708421	      0.00000000	    -16.88776391	      2.24600465	     -0.41571485	     23.99794283	     -4.01117032	     29.44842095	     92.00370136	     88.21785497	     28.58129171	     -3.39985570	     23.94728601	     85.53202102	     88.04481226
      0.75000000	    -13.80265181	      0.11944524	     -3.91562890	      1.49631084	      0.77030500	     -0.09533619	     42.52285509	     -8.41019318	     -4.36410455	     51.54176432	     24.45615929	     -3.71170672	      0.00000000	     41.52913373	    -10.67576600	     -6.55476810	     52.66331598	     26.58030365	      0.19842666	      0.00000000	    -17.96370225	      2.29035242	     -0.29561244	     24.56765475	     -4.03055377	     29.26370175	     94.17414748	     88.24046516	     29.17432918	     -2.80690267	     25.82601175	     88.15827162	     87.89187859
      0.76666670	    -13.47619782	      0.05664117	     -3.90261399	      1.49481114	      0.76356658	     -0.09525379	     43.70606141	     -8.79038895	     -4.38664686	     54.52503432	     25.86421376	     -2.89446170	      0.00000000	     42.70799836	    -11.23816626	     -6.49929181	     55.56586845	     28.22101856	      1.20451765	      0.00000000	    -19.00804799	      2.28317743	     -0.21736302	     25.30512179	     -4.06734527	     28.99278340	     96.59421050	     88.24816616	     29.84592813	     -2.06054219	     27.70576832	     90.79761038	     87.69133228
